<svg width="33" height="32" viewBox="0 0 33 32" fill="none" xmlns="http://www.w3.org/2000/svg">
<path d="M10.3199 31H6.01934C3.64419 31 1.71875 29.2518 1.71875 27.0952V13.2722C1.71875 12.1322 2.26735 11.0492 3.22056 10.3074L13.972 1.94004C15.5826 0.686652 17.9591 0.686652 19.5696 1.94004L30.3211 10.3074C31.2743 11.0492 31.8229 12.1322 31.8229 13.2722V27.0952C31.8229 29.2518 29.8975 31 27.5223 31H23.2217M10.3199 31V19.2857C10.3199 18.2074 11.2827 17.3333 12.4702 17.3333H21.0714C22.259 17.3333 23.2217 18.2074 23.2217 19.2857V31M10.3199 31H23.2217" stroke="black" stroke-width="2" stroke-linecap="round" stroke-linejoin="round"/>
</svg>
