<svg width="35" height="35" viewBox="0 0 35 35" fill="none" xmlns="http://www.w3.org/2000/svg">
<rect width="35" height="35" rx="10" fill="black"/>
<path d="M13.125 28.6482H10.2083C8.59746 28.6482 7.29163 27.4004 7.29163 25.8612V15.9949C7.29163 15.1812 7.66369 14.4083 8.31016 13.8788L15.6018 7.90655C16.6941 7.01194 18.3058 7.01194 19.3981 7.90655L26.6898 13.8788C27.3363 14.4083 27.7083 15.1812 27.7083 15.9949V25.8612C27.7083 27.4004 26.4025 28.6482 24.7916 28.6482H21.875M13.125 28.6482V20.2871C13.125 19.5174 13.7779 18.8936 14.5833 18.8936H20.4166C21.2221 18.8936 21.875 19.5174 21.875 20.2871V28.6482M13.125 28.6482H21.875" stroke="white" stroke-width="2" stroke-linecap="round" stroke-linejoin="round"/>
</svg>
