<svg width="26" height="21" viewBox="0 0 26 21" fill="none" xmlns="http://www.w3.org/2000/svg">
<path d="M13 7.24975L13 19.9997M13 7.24975C13 5.14956 13 4.0999 12.5913 3.29772C12.2318 2.59212 11.6585 2.01825 10.9529 1.65872C10.1508 1.25 9.1005 1.25 7.00025 1.25L3.75025 1.25C3.05013 1.25 2.69988 1.25 2.4325 1.38624C2.19725 1.50609 2.0065 1.69717 1.88675 1.93237C1.7505 2.19976 1.75 2.55005 1.75 3.25012L1.75 14.2501C1.75 14.9501 1.7505 15.2997 1.88675 15.5671C2.0065 15.8024 2.19688 15.994 2.43213 16.1139C2.69925 16.25 3.04875 16.25 3.7475 16.25L7.28837 16.25C8.46237 16.25 9.05037 16.25 9.58325 16.4119C10.055 16.5551 10.4929 16.7896 10.8737 17.1026C11.304 17.4562 11.63 17.9446 12.2812 18.9215L13 19.9997M13 7.24975C13 5.14956 13.0003 4.0999 13.4089 3.29772C13.7685 2.59212 14.3421 2.01825 15.0478 1.65872C15.85 1.25 16.9003 1.25 19.0005 1.25L22.2505 1.25C22.9506 1.25 23.3002 1.25 23.5676 1.38624C23.8028 1.50609 23.9939 1.69717 24.1138 1.93237C24.25 2.19976 24.25 2.55005 24.25 3.25013L24.25 14.2501C24.25 14.9501 24.25 15.2997 24.1138 15.5671C23.9939 15.8024 23.8028 15.994 23.5676 16.1139C23.3005 16.25 22.9512 16.25 22.2525 16.25L18.7116 16.25C17.5376 16.25 16.9507 16.25 16.4179 16.4119C15.9462 16.5551 15.5061 16.7896 15.1252 17.1026C14.6967 17.4547 14.3729 17.9408 13.7269 18.9096L13 19.9997" stroke="black" stroke-width="2" stroke-linecap="round" stroke-linejoin="round"/>
</svg>
